<?xml version="1.0" encoding="UTF-8"?>
<svg id="Layer_1" data-name="Layer 1" xmlns="http://www.w3.org/2000/svg" viewBox="0 0 1680 1280">
  <defs>
    <style>
      .cls-1 {
        fill: #fff;
      }
    </style>
  </defs>
  <g>
    <path class="cls-1" d="M710.45,592.21v6.85c0,2.63,2.13,4.77,4.77,4.77h48.6c2.63,0,4.77,2.13,4.77,4.77v24.48c0,2.63-2.13,4.77-4.77,4.77h-34.06c-1.8,0-3.44-1.01-4.25-2.62l-6.04-11.94c-2.26-4.48-9.02-2.87-9.02,2.15v58.39c0,2.63-2.13,4.77-4.77,4.77h-24.3c-2.63,0-4.77-2.13-4.77-4.77v-125.82c0-2.63,2.13-4.77,4.77-4.77h96.3c2.63,0,4.77,2.13,4.77,4.77v24.66c0,2.63-2.13,4.77-4.77,4.77h-62.46c-2.63,0-4.77,2.13-4.77,4.77Z"/>
    <path class="cls-1" d="M903.41,654.22c0,9.36-4.14,18-10.44,24.3-6.48,6.3-15.12,10.08-25.38,10.08h-45.9c-9.9,0-18.72-3.78-25.38-10.08-13.68-13.5-13.68-37.08,0-50.76,6.66-6.12,15.48-9.9,25.38-9.9h35.49c6.03,0,6.51-9.09.49-9.51-.29-.02-.59-.03-.88-.03h-48.69c-2.63,0-4.77-2.13-4.77-4.77v-22.33c0-2.63,2.13-4.77,4.77-4.77h48.69c24.59,0,45.07,18.98,46.61,42.83,0,.13.01.26.01.38v34.55ZM862.19,659.8c4.5,0,8.28-3.42,8.28-8.1v-3.33c0-2.63-2.13-4.77-4.77-4.77h-41.49c-10.98,0-10.98,16.2,0,16.2h37.98Z"/>
    <path class="cls-1" d="M1010.15,581.05v24.12c0,2.63-2.13,4.77-4.77,4.77h-34.65c-7.38,0-13.68,6.3-13.68,13.5v60.39c0,2.63-2.13,4.77-4.77,4.77h-24.12c-2.63,0-4.77-2.13-4.77-4.77v-55.62c0-28.68,23.25-51.93,51.93-51.93h30.06c2.63,0,4.77,2.13,4.77,4.77Z"/>
    <path class="cls-1" d="M1112.39,583.51v27.77c0,4.04-4.73,6.27-7.82,3.66-4.91-4.17-11.45-6.43-18.1-6.43-13.68,0-26.1,10.26-26.1,23.76,0,30.42,52.38,31.5,52.38,0,0-.52-.03-1.01-.08-1.49-.13-1.27.21-2.55,1.01-3.55l17.97-22.4c2.11-2.62,6.21-2.31,7.87.62,4.44,7.88,7.06,17.06,7.06,26.81,0,32.94-29.52,57.6-60.12,57.6-32.4,0-59.94-26.28-59.94-57.6,0-33.12,29.34-57.6,59.94-57.6,8.21,0,16.01,1.52,23.02,4.45,1.76.74,2.9,2.48,2.9,4.39Z"/>
    <path class="cls-1" d="M1199.51,558.01v125.82c0,2.63-2.13,4.77-4.77,4.77h-24.48c-2.63,0-4.77-2.13-4.77-4.77v-125.82c0-2.63,2.13-4.77,4.77-4.77h24.48c2.63,0,4.77,2.13,4.77,4.77Z"/>
    <path class="cls-1" d="M1248.65,643.06c-18.72-3.6-36.54-14.94-34.38-35.46,1.98-18.9,19.8-30.78,37.98-30.78h60.21c2.63,0,4.77,2.13,4.77,4.77v20.7c0,2.63-2.13,4.77-4.77,4.77h-57.15c-6.66,0-9,6.84,0,8.82l37.08,6.48c17.46,3.24,32.22,17.1,30.24,35.46-1.8,18.9-19.8,30.78-38.16,30.78h-56.43c-2.63,0-4.77-2.13-4.77-4.77v-20.52c0-2.63,2.13-4.77,4.77-4.77h53.37c10.08,0,8.64-8.28.54-9.54l-33.3-5.94Z"/>
  </g>
  <path class="cls-1" d="M616.48,610.46c0,73.32-49.73,135.14-117.59,154.17-5.66,1.59-11.28-2.67-11.28-8.51v-23.75c0-3.86,2.53-7.26,6.24-8.43,49.88-15.68,85.89-60.56,85.89-113.48s-39.05-101.48-92.14-115.27c-.04,0-.07-.02-.11-.03-5.61-1.46-11.09,2.79-11.09,8.56v304.61c0,3.19-1.73,6.12-4.52,7.69l-15.57,8.74-6.83,3.83c-5.93,3.32-13.26-.93-13.26-7.69v-43.61c0-4.34-3.18-8-7.49-8.69-1.24-.2-2.48-.41-3.71-.64-75.11-13.83-131.99-79.08-131.99-157.5s51.33-137.12,120.87-155.05c5.63-1.45,11.12,2.78,11.12,8.55v23.65c0,3.94-2.64,7.39-6.45,8.49-51.38,14.82-88.81,60.41-88.81,114.35s40.58,103.29,95.26,116.03c.11.03.22.05.33.08,5.56,1.28,10.87-2.94,10.87-8.61v-258.57c0-4.68,3.68-8.53,8.39-8.82,3.36-.21,6.74-.31,10.15-.31.52,0,1.04,0,1.56.01,6.81.06,13.51.54,20.09,1.42,3.78.5,7.51,1.13,11.2,1.88,73.56,15.04,128.87,79.57,128.87,156.89Z"/>
</svg>