<?xml version="1.0" encoding="UTF-8"?>
<svg id="Layer_1" data-name="Layer 1" xmlns="http://www.w3.org/2000/svg" viewBox="0 0 1280 1280">
  <defs>
    <style>
      .cls-1 {
        fill: #fff;
      }
    </style>
  </defs>
  <path class="cls-1" d="M1110.85,544.2c0,214.92-144.78,396.12-342.37,451.89-16.48,4.65-32.83-7.82-32.83-24.95v-69.62c0-11.33,7.38-21.29,18.18-24.71,145.23-45.97,250.08-177.51,250.08-332.62s-113.68-297.47-268.26-337.87c-.11-.03-.21-.06-.32-.08-16.35-4.27-32.29,8.19-32.29,25.09v892.89c0,9.34-5.03,17.95-13.16,22.54l-45.34,25.61-19.88,11.23c-17.26,9.74-38.62-2.72-38.62-22.54v-127.84c0-12.71-9.27-23.45-21.82-25.48-3.61-.58-7.21-1.21-10.79-1.88-218.69-40.53-384.28-231.81-384.28-461.66S318.61,142.27,521.07,89.72c16.38-4.25,32.36,8.15,32.36,25.07v69.32c0,11.56-7.68,21.66-18.78,24.89-149.61,43.45-258.56,177.09-258.56,335.19s118.16,302.76,277.34,340.12c.32.08.64.15.96.22,16.19,3.76,31.65-8.62,31.65-25.24V101.37c0-13.73,10.72-25,24.42-25.85,9.77-.6,19.62-.91,29.54-.91,1.51,0,3.03.01,4.54.03,19.82.18,39.34,1.59,58.5,4.15,11,1.46,21.87,3.31,32.61,5.52,214.18,44.08,375.2,233.24,375.2,459.89Z"/>
</svg>